<?xml version="1.0" encoding="UTF-8" standalone="no"?>
<?xml-stylesheet type="text/css" href="https://fonts.googleapis.com/css?family=Open+Sans:300italic,400italic,600italic,700italic,400,600,700,300&amp;subset=latin,cyrillic-ext,latin-ext,cyrillic" ?>
<!DOCTYPE svg PUBLIC "-//W3C//DTD SVG 1.1//EN" "http://www.w3.org/Graphics/SVG/1.1/DTD/svg11.dtd">
<!-- Generated by Microsoft Visio, SVG Export realms.svg Page-1 -->
<svg xmlns="http://www.w3.org/2000/svg" xmlns:xlink="http://www.w3.org/1999/xlink" xmlns:ev="http://www.w3.org/2001/xml-events"
		width="8.77269in" height="1.59815in" viewBox="0 0 631.634 115.067" xml:space="preserve" color-interpolation-filters="sRGB"
		class="st16">
	<style type="text/css">
	<![CDATA[
		.st1 {fill:#67b6eb;stroke:#ffffff;stroke-linecap:round;stroke-linejoin:round;stroke-opacity:0.6;stroke-width:1}
		.st2 {fill:#146194}
		.st3 {fill:url(#grad0-16)}
		.st4 {fill:#ffffff;font-family:Open Sans;font-size:1.00001em;font-stretch:semi-expanded}
		.st5 {fill:url(#grad0-54);stroke:#ffffff;stroke-linecap:round;stroke-linejoin:round;stroke-opacity:0.6;stroke-width:1}
		.st6 {fill:#ffffff;font-family:Open Sans;font-size:0.666664em}
		.st7 {fill:url(#grad0-59);stroke:#ffffff;stroke-linecap:round;stroke-linejoin:round;stroke-opacity:0.6;stroke-width:1}
		.st8 {fill:url(#grad0-6)}
		.st9 {stroke:#ffffff;stroke-linecap:round;stroke-linejoin:round;stroke-opacity:0.6;stroke-width:1}
		.st10 {marker-end:url(#mrkr4-86);stroke:#105482;stroke-linecap:round;stroke-linejoin:round;stroke-width:0.5}
		.st11 {fill:#105482;fill-opacity:1;stroke:#105482;stroke-opacity:1;stroke-width:0.16556291390728}
		.st12 {fill:#06304d;font-family:Open Sans;font-size:0.666664em}
		.st13 {font-size:1em}
		.st14 {marker-end:url(#mrkr4-123);stroke:#105482;stroke-dasharray:3.5,2.5;stroke-linecap:round;stroke-linejoin:round;stroke-width:0.5}
		.st15 {fill:#105482;fill-opacity:1;stroke:#105482;stroke-opacity:1;stroke-width:0.25773195876289}
		.st16 {fill:none;fill-rule:evenodd;font-size:12px;overflow:visible;stroke-linecap:square;stroke-miterlimit:3}
	]]>
	</style>

	<defs id="Patterns_And_Gradients">
		<linearGradient id="grad0-6" x1="0" y1="0" x2="1" y2="0" gradientTransform="rotate(20 0.5 0.5)">
			<stop offset="0.35" stop-color="#0e4264" stop-opacity="1"/>
			<stop offset="0.35" stop-color="#0d3e5e" stop-opacity="1"/>
		</linearGradient>
		<linearGradient id="grad0-16" x1="0" y1="0" x2="1" y2="0" gradientTransform="rotate(160 0.5 0.5)">
			<stop offset="0.45" stop-color="#0f4b73" stop-opacity="1"/>
			<stop offset="0.45" stop-color="#125785" stop-opacity="1"/>
			<stop offset="0.6" stop-color="#125785" stop-opacity="1"/>
			<stop offset="0.6" stop-color="#11517c" stop-opacity="1"/>
			<stop offset="0.85" stop-color="#11517c" stop-opacity="1"/>
			<stop offset="0.85" stop-color="#0d3e5e" stop-opacity="1"/>
		</linearGradient>
		<linearGradient id="grad0-54" x1="0" y1="0" x2="1" y2="0" gradientTransform="rotate(25 0.5 0.5)">
			<stop offset="0.2" stop-color="#31c8ed" stop-opacity="1"/>
			<stop offset="0.2" stop-color="#70d8f2" stop-opacity="1"/>
			<stop offset="0.6" stop-color="#70d8f2" stop-opacity="1"/>
			<stop offset="0.6" stop-color="#31c8ed" stop-opacity="1"/>
			<stop offset="0.85" stop-color="#31c8ed" stop-opacity="1"/>
			<stop offset="0.85" stop-color="#11a8cd" stop-opacity="1"/>
		</linearGradient>
		<linearGradient id="grad0-59" x1="0" y1="0" x2="1" y2="0" gradientTransform="rotate(30 0.5 0.5)">
			<stop offset="0.65" stop-color="#063f81" stop-opacity="1"/>
			<stop offset="0.65" stop-color="#063a78" stop-opacity="1"/>
		</linearGradient>
	</defs>
	<defs id="Markers">
		<g id="lend4">
			<path d="M 2 1 L 0 0 L 2 -1 L 2 1 " style="stroke:none"/>
		</g>
		<marker id="mrkr4-86" class="st11" refX="-12.08" orient="auto" markerUnits="strokeWidth" overflow="visible">
			<use xlink:href="#lend4" transform="scale(-6.04,-6.04) "/>
		</marker>
		<marker id="mrkr4-123" class="st15" refX="-7.76" orient="auto" markerUnits="strokeWidth" overflow="visible">
			<use xlink:href="#lend4" transform="scale(-3.88,-3.88) "/>
		</marker>
	</defs>
	<g>
		<title>Page-1</title>
		<g id="group20-1" transform="translate(0.5,-2.83465)">
			<title>Banner</title>
			<g id="group21-2">
				<title>Sheet.21</title>
				<g id="shape22-3" transform="translate(2.83465,2.83465)">
					<title>Sheet.22</title>
				</g>
				<g id="shape21-7">
					<path d="M0 115.07 L122.81 115.07 L245.62 115.07 L245.62 3.33 L122.81 3.33 L0 3.33 L0 115.07 Z" class="st1"/>
				</g>
			</g>
			<g id="group23-9" transform="translate(0,-86.2205)">
				<title>Sheet.23</title>
				<desc>Digital realm</desc>
				<g id="shape24-10" transform="translate(0,12.2559)">
					<title>Sheet.24</title>
					<path d="M0.5 115.07 A883.844 883.844 0 0 1 245.12 115.07 L245.12 110.81 A883.844 883.844 -180 0 0 0.5 110.81
								 L0.5 115.07 Z" class="st2"/>
				</g>
				<g id="shape23-13">
					<path d="M-0 123.57 A891.05 891.05 0 0 1 245.62 123.57 L245.62 89.56 L0 89.56 L0 123.57 Z" class="st3"/>
					<text x="83.78" y="105.91" class="st4">Digital realm</text>				</g>
			</g>
		</g>
		<g id="group27-19" transform="translate(267.382,-2.83465)">
			<title>Banner.27</title>
			<g id="group28-20">
				<title>Sheet.28</title>
				<g id="shape29-21" transform="translate(2.83465,2.83465)">
					<title>Sheet.29</title>
				</g>
				<g id="shape28-24">
					<path d="M0 115.07 L98.5 115.07 L197.01 115.07 L197.01 3.33 L98.5 3.33 L0 3.33 L0 115.07 Z" class="st1"/>
				</g>
			</g>
			<g id="group30-26" transform="translate(0,-86.2205)">
				<title>Sheet.30</title>
				<desc>Analog realm</desc>
				<g id="shape31-27" transform="translate(0,12.2559)">
					<title>Sheet.31</title>
					<path d="M0.5 115.07 A568.977 568.977 0 0 1 196.51 115.07 L196.51 110.81 A568.977 568.977 -180 0 0 0.5 110.81
								 L0.5 115.07 Z" class="st2"/>
				</g>
				<g id="shape30-30">
					<path d="M-0 123.57 A574.754 574.754 0 0 1 197.01 123.57 L197.01 89.56 L0 89.56 L0 123.57 Z" class="st3"/>
					<text x="57.74" y="105.91" class="st4">Analog realm</text>				</g>
			</g>
		</g>
		<g id="group32-35" transform="translate(482.815,-2.83465)">
			<title>Banner.32</title>
			<g id="group33-36">
				<title>Sheet.33</title>
				<g id="shape34-37" transform="translate(2.83465,2.83465)">
					<title>Sheet.34</title>
				</g>
				<g id="shape33-40">
					<path d="M0 115.07 L72.99 115.07 L145.98 115.07 L145.98 3.33 L72.99 3.33 L0 3.33 L0 115.07 Z" class="st1"/>
				</g>
			</g>
			<g id="group35-42" transform="translate(0,-86.2205)">
				<title>Sheet.35</title>
				<desc>Acoustic realm</desc>
				<g id="shape36-43" transform="translate(0,12.2559)">
					<title>Sheet.36</title>
					<path d="M0.5 115.07 A313.233 313.233 0 0 1 145.48 115.07 L145.48 110.81 A313.233 313.233 -180 0 0 0.5 110.81
								 L0.5 115.07 Z" class="st2"/>
				</g>
				<g id="shape35-46">
					<path d="M-0 123.57 A317.51 317.51 0 0 1 145.98 123.57 L145.98 89.56 L0 89.56 L0 123.57 Z" class="st3"/>
					<text x="27.76" y="105.91" class="st4">Acoustic realm</text>				</g>
			</g>
		</g>
		<g id="shape53-51" transform="translate(495.571,-11.3386)">
			<title>Sheet.53</title>
			<desc>LISTENING ROOM</desc>
			<rect x="0" y="63.5836" width="119.055" height="51.4833" class="st5"/>
			<text x="48.58" y="74.78" class="st6">LISTENING ROOM</text>		</g>
		<g id="shape1-56" transform="translate(9.42913,-32.3622)">
			<title>Box</title>
			<desc>Digital media</desc>
			<rect x="0" y="95.2244" width="59.5276" height="19.8425" class="st7"/>
			<text x="5.29" y="107.55" class="st6">Digital media</text>		</g>
		<g id="shape4-61" transform="translate(227.697,-32.3622)">
			<title>Box.4</title>
			<desc>DAC</desc>
			<rect x="0" y="95.2244" width="59.5276" height="19.8425" class="st7"/>
			<text x="21.79" y="107.55" class="st6">DAC</text>		</g>
		<g id="shape5-65" transform="translate(336.831,-32.3622)">
			<title>Box.5</title>
			<desc>Amplifier</desc>
			<rect x="0" y="95.2244" width="59.5276" height="19.8425" class="st7"/>
			<text x="12.79" y="107.55" class="st6">Amplifier</text>		</g>
		<g id="shape6-69" transform="translate(445.965,-32.3622)">
			<title>Box.6</title>
			<desc>Loudspeaker</desc>
			<rect x="0" y="95.2244" width="59.5276" height="19.8425" class="st7"/>
			<text x="5.56" y="107.55" class="st6">Loudspeaker</text>		</g>
		<g id="shape13-73" transform="translate(562.953,-11.8046)">
			<title>Person</title>
			<path d="M13.74 90.37 L3.27 90.37 C2.51 90.37 1.82 90.62 1.27 91.04 C0.88 91.33 0.57 91.71 0.34 92.14 C0.12 92.56 0 93.05
						 0 93.56 L0 105.7 L2.87 105.7 L2.87 115.07 L14.03 115.07 L14.03 105.7 L17.01 105.7 L17.01 93.56 C17.01 92.82
						 16.75 92.15 16.32 91.6 C16.02 91.23 15.64 90.92 15.2 90.7 C14.76 90.49 14.26 90.37 13.74 90.37 ZM13.4 84.36
						 A4.89146 4.72677 -180 1 0 3.61 84.36 A4.89146 4.72677 -180 1 0 13.4 84.36 Z" class="st8"/>
			<path d="M13.74 90.37 L3.27 90.37 C2.51 90.37 1.82 90.62 1.27 91.04 C0.88 91.33 0.57 91.71 0.34 92.14 C0.12 92.56 0 93.05
						 0 93.56 L0 105.7 L2.87 105.7 L2.87 115.07 L14.03 115.07 L14.03 105.7 L17.01 105.7 L17.01 93.56 C17.01 92.82
						 16.75 92.15 16.32 91.6 C16.02 91.23 15.64 90.92 15.2 90.7 C14.76 90.49 14.26 90.37 13.74 90.37"
					class="st9"/>
			<path d="M8.5 115.07 L8.5 107.58" class="st9"/>
			<path d="M2.87 105.7 L2.87 99.23" class="st9"/>
			<path d="M14.03 105.7 L14.03 99.23" class="st9"/>
			<path d="M13.4 84.36 A4.89146 4.72677 -180 1 0 3.61 84.36 A4.89146 4.72677 -180 1 0 13.4 84.36" class="st9"/>
		</g>
		<g id="shape17-81" transform="translate(287.224,-35.1969)">
			<title>Dynamic connector.17</title>
			<desc>0.5-3 V &#60;1 mW</desc>
			<path d="M0 107.98 L43.57 107.98" class="st10"/>
			<text x="12.17" y="105.58" class="st12">0.5-3 V<tspan x="11.77" dy="1.2em" class="st13">&#60;</tspan>1 mW</text>		</g>
		<g id="shape18-89" transform="translate(396.358,-35.1969)">
			<title>Dynamic connector.18</title>
			<desc>1-30 V 1-100 W</desc>
			<path d="M0 107.98 L43.57 107.98" class="st10"/>
			<text x="13.23" y="105.58" class="st12">1-30 V<tspan x="9.63" dy="1.2em" class="st13">1</tspan>-100 W</text>		</g>
		<g id="shape19-96" transform="translate(505.492,-35.1969)">
			<title>Dynamic connector.19</title>
			<desc>0.1-4 Pa</desc>
			<path d="M0 107.98 L49.89 107.98" class="st10"/>
			<text x="12.04" y="117.47" class="st12">0.1-4 Pa</text>		</g>
		<g id="shape43-102" transform="translate(178.091,-35.1969)">
			<title>Dynamic connector</title>
			<desc>PCM</desc>
			<path d="M0 107.98 L43.57 107.98" class="st10"/>
			<text x="15.55" y="117.47" class="st12">PCM</text>		</g>
		<g id="shape44-108" transform="translate(118.563,-32.3622)">
			<title>Box.44</title>
			<desc>Decoder</desc>
			<rect x="0" y="95.2244" width="59.5276" height="19.8425" class="st7"/>
			<text x="13.96" y="107.55" class="st6">Decoder</text>		</g>
		<g id="shape45-112" transform="translate(68.9567,-35.1969)">
			<title>Dynamic connector.45</title>
			<desc>MP3 &#38; co.</desc>
			<path d="M0 107.98 L43.57 107.98" class="st10"/>
			<text x="5.41" y="117.47" class="st12">MP3 &#38; co.</text>		</g>
		<g id="shape54-118" transform="translate(505.492,-47.9244)">
			<title>Dynamic connector.54</title>
			<path d="M0 120.71 L28.06 151.61 L52.98 126.36" class="st14"/>
		</g>
		<g id="shape56-124" transform="translate(505.492,-36.9685)">
			<title>Dynamic connector.56</title>
			<path d="M0 109.75 L27.92 89.2 L53.02 104.22" class="st14"/>
		</g>
	</g>
</svg>
